<?xml version="1.0" encoding="UTF-8" standalone="no"?>
<svg
   xmlns:dc="http://purl.org/dc/elements/1.1/"
   xmlns:cc="http://creativecommons.org/ns#"
   xmlns:rdf="http://www.w3.org/1999/02/22-rdf-syntax-ns#"
   xmlns:svg="http://www.w3.org/2000/svg"
   xmlns="http://www.w3.org/2000/svg"
   viewBox="0 0 600.00002 135.99999"
   height="136"
   width="600"
   xml:space="preserve"
   id="svg2"
   version="1.1"><metadata
     id="metadata8"><rdf:RDF><cc:Work
         rdf:about=""><dc:format>image/svg+xml</dc:format><dc:type
           rdf:resource="http://purl.org/dc/dcmitype/StillImage" /><dc:title></dc:title></cc:Work></rdf:RDF></metadata><defs
     id="defs6"><clipPath
       id="clipPath20"
       clipPathUnits="userSpaceOnUse"><path
         id="path18"
         d="m 1019.578,800 -56.911,-156.396 -289.17,105.25 c -72.638,23.172 -149.971,15.503 -232.852,-16.169 v 0 C 379.134,706.247 324.907,664.146 285.753,609.979 v 0 C 224.687,531.285 192.252,442.171 188.448,342.636 v 0 c -1.388,-48.322 6.877,-96.892 23.718,-148.609 v 0 C 239.723,110.746 295.707,46.509 379.613,0 v 0 h 426.026 c 0.259,0.174 0.513,0.346 0.772,0.521 v 0 c 77.672,53.107 135.597,123.173 164.884,203.638 v 0 L 1188.163,800 Z M 514.84,90.343 c -60.123,21.883 -107.474,52.152 -138.136,92.599 v 0 c -43.66,58.212 -53.941,136.853 -32.98,230.118 v 0 l 5.503,24.018 c 27.212,74.765 72.085,126.775 138.549,157.917 v 0 c 57.578,24.605 114.628,29.886 171.891,9.044 v 0 L 914.485,511.293 848.565,330.181 C 815.106,238.252 770.705,169.743 718.29,123.718 v 0 C 679.501,91.717 637.165,75.853 592.053,75.852 v 0 c -24.933,0 -50.713,4.846 -77.213,14.491" /></clipPath><clipPath
       id="clipPath40"
       clipPathUnits="userSpaceOnUse"><path
         id="path38"
         d="M 815,450 V 348 h 12.873 v 37.064 c 0,7.033 1.342,12.174 3.756,15.961 v 0 c 3.486,4.329 8.311,6.763 14.749,6.763 v 0 c 4.289,0 7.778,-1.892 10.727,-5.139 v 0 c 2.948,-3.246 4.289,-7.578 4.289,-13.258 v 0 V 348 H 874 v 48.155 c 0,7.303 -2.682,13.255 -8.045,17.856 v 0 c -5.094,4.058 -11.265,6.222 -18.773,5.951 v 0 c -3.754,0 -7.51,-0.54 -10.727,-2.165 v 0 c -2.682,-1.083 -5.63,-3.248 -8.582,-6.223 v 0 38.418 0.008 z" /></clipPath><clipPath
       id="clipPath50"
       clipPathUnits="userSpaceOnUse"><path
         id="path48"
         d="m 645.844,447.994 h 0.003 V 448 Z m 0.003,0 v -28.787 h -27.495 c -6.807,-0.269 -13.065,-3.225 -19.055,-8.329 v 0 c -4.357,-4.03 -7.624,-9.134 -9.255,-14.782 v 0 c -2.723,-8.329 -2.723,-16.659 0,-24.989 v 0 c 1.36,-4.03 3.538,-7.791 6.532,-11.553 v 0 C 602.834,351.762 612.092,348 624.341,348 v 0 h 1.362 c 11.161,0 20.144,4.567 26.676,13.434 v 0 c 4.899,6.716 7.621,14.24 7.621,21.762 v 0 64.798 z m -35.12,-84.412 c -5.444,3.493 -8.711,9.675 -9.801,18.003 v 0 l -0.271,2.147 c 0,6.989 2.178,12.63 6.806,17.197 v 0 c 4.083,3.76 8.711,5.911 14.155,5.911 v 0 h 24.228 v -16.928 c 0,-8.595 -1.634,-15.583 -4.628,-20.957 v 0 c -3.538,-5.91 -8.982,-8.867 -16.062,-8.867 v 0 c -5.716,0 -10.616,1.077 -14.427,3.494" /></clipPath><clipPath
       id="clipPath62"
       clipPathUnits="userSpaceOnUse"><path
         id="path60"
         d="m 697.694,449 c -5.923,0 -10.77,-1.354 -14.807,-4.333 v 0 C 676.961,440.334 674,433.564 674,424.087 v 0 V 348 h 12.386 v 56.32 h 20.461 v 12.457 h -20.461 v 3.248 c 0,5.147 0.538,8.937 1.885,11.375 v 0 c 2.155,3.521 5.922,5.415 11.578,5.415 v 0 H 709 V 449 Z" /></clipPath><clipPath
       id="clipPath72"
       clipPathUnits="userSpaceOnUse"><path
         id="path70"
         d="m 719.443,439.186 h -0.002 C 717.813,438.149 717,436.593 717,434.26 v 0 c 0,-2.333 1.086,-4.149 2.441,-5.445 v 0 c 1.625,-1.297 3.525,-1.815 5.693,-1.815 v 0 c 2.169,0 4.066,0.518 5.694,1.815 v 0 c 1.628,1.296 2.172,3.112 2.172,5.445 v 0 c 0,2.074 -0.815,3.629 -2.441,4.926 v 0 c -1.626,1.296 -3.254,1.814 -5.424,1.814 v 0 c -2.44,0 -4.338,-0.518 -5.692,-1.814" /></clipPath><clipPath
       id="clipPath82"
       clipPathUnits="userSpaceOnUse"><path
         id="path80"
         d="m 774.527,418 c -8.574,0 -14.736,-1.08 -18.756,-3.245 v 0 0.006 c -5.359,-2.702 -7.769,-7.567 -7.769,-14.868 v 0 c 0,-5.674 1.606,-10.001 5.089,-13.513 v 0 c 3.215,-2.971 8.039,-5.405 14.737,-7.298 v 0 c 9.647,-2.432 16.076,-4.592 18.756,-6.486 v 0 c 2.412,-1.622 3.753,-3.513 3.753,-5.947 v 0 c 0,-2.433 -1.073,-4.053 -2.949,-4.865 v 0 c -1.34,-0.811 -3.484,-1.082 -6.163,-1.082 v 0 H 748 V 348.271 L 780.957,348 c 6.162,0 11.254,1.082 15.005,2.974 v 0 c 5.358,2.971 8.038,8.107 8.038,15.675 v 0 c 0,5.674 -1.607,10.27 -4.822,13.513 v 0 c -3.214,3.242 -8.841,6.487 -17.15,9.459 v 0 c -2.409,0.811 -6.965,2.163 -13.397,3.784 v 0 c -5.089,1.89 -7.769,4.324 -7.769,7.568 v 0 c 0,2.432 1.071,3.783 3.483,4.594 v 0 c 2.142,0.812 5.091,1.352 9.111,1.352 v 0 h 27.063 V 418 Z" /></clipPath><clipPath
       id="clipPath94"
       clipPathUnits="userSpaceOnUse"><path
         id="path92"
         d="M 532.17,439.186 C 530.542,438.149 530,436.593 530,434.26 v 0 c 0,-2.333 0.815,-4.149 2.441,-5.445 v 0 c 1.628,-1.297 3.256,-1.815 5.694,-1.815 v 0 c 1.899,0 3.796,0.518 5.425,1.815 v 0 c 1.627,1.296 2.44,3.112 2.44,5.445 v 0 c 0,2.074 -1.084,3.629 -2.44,4.926 v 0 c -1.629,1.296 -3.526,1.814 -5.425,1.814 v 0 c -2.712,0 -4.608,-0.518 -5.965,-1.814" /></clipPath><clipPath
       id="clipPath104"
       clipPathUnits="userSpaceOnUse"><path
         id="path102"
         d="m 501.8,418 v -40.309 c 0,-5.17 -0.815,-9.251 -2.981,-11.972 v 0 c -2.17,-2.991 -5.152,-4.351 -8.675,-4.351 v 0 c -4.065,0 -7.049,0.816 -9.487,2.721 v 0 c -2.711,2.177 -4.067,5.982 -4.067,11.152 v 0 42.749 h -13.825 v -40.31 c 0,-6.259 -1.084,-10.611 -2.982,-12.788 v 0 c -2.169,-2.449 -5.963,-3.537 -10.843,-3.537 v 0 c -3.797,0 -6.508,1.631 -8.675,4.352 v 0 c -1.898,2.721 -2.711,5.711 -2.711,9.522 v 0 42.747 H 424 v -44.943 c 0,-5.442 1.898,-10.612 5.422,-15.509 v 0 c 4.608,-6.53 11.114,-9.522 19.518,-9.522 v 0 c 4.88,0 9.487,1.09 13.283,2.992 v 0 c 2.982,1.903 5.422,4.353 7.318,7.074 v 0 c 2.981,-3.81 5.963,-6.531 9.218,-7.892 v 0 C 481.74,348.817 486.077,348 491.498,348 v 0 c 5.151,0 10.032,2.176 14.909,6.258 v 0 c 5.151,4.626 7.591,9.797 7.591,15.779 v 0 L 514,370.071 V 418 Z" /></clipPath></defs><g
     transform="matrix(1.3333333,0,0,-1.3333333,-565.33332,599.99999)"
     id="g10"><g
       id="g939"><g
         id="g34"><g
           id="g36"
           clip-path="url(#clipPath40)"><path
             d="m 810,343 h 69 v 112 h -69 z"
             style="fill:#ffffff;fill-opacity:1;fill-rule:nonzero;stroke:none"
             id="path42" /></g></g><g
         id="g44"><g
           id="g46"
           clip-path="url(#clipPath50)"><path
             d="m 583,343 h 82 v 110 h -82 z"
             style="fill:#ffffff;fill-opacity:1;fill-rule:nonzero;stroke:none"
             id="path52" /></g></g><path
         d="m 561,348 h 14 v 102 h -14 z"
         style="fill:#ffffff;fill-opacity:1;fill-rule:nonzero;stroke:none"
         id="path54" /><g
         id="g56"><g
           id="g58"
           clip-path="url(#clipPath62)"><path
             d="m 669,343 h 45 v 111 h -45 z"
             style="fill:#ffffff;fill-opacity:1;fill-rule:nonzero;stroke:none"
             id="path64" /></g></g><g
         id="g66"><g
           id="g68"
           clip-path="url(#clipPath72)"><path
             d="m 712,422 h 26 v 24 h -26 z"
             style="fill:#ffffff;fill-opacity:1;fill-rule:nonzero;stroke:none"
             id="path74" /></g></g><g
         id="g76"><g
           id="g78"
           clip-path="url(#clipPath82)"><path
             d="m 743,343 h 66 v 80 h -66 z"
             style="fill:#ffffff;fill-opacity:1;fill-rule:nonzero;stroke:none"
             id="path84" /></g></g><path
         d="m 718,348 h 12 v 69.999 h -12 z"
         style="fill:#ffffff;fill-opacity:1;fill-rule:nonzero;stroke:none"
         id="path86" /><g
         id="g88"><g
           id="g90"
           clip-path="url(#clipPath94)"><path
             d="m 525,422 h 26 v 24 h -26 z"
             style="fill:#ffffff;fill-opacity:1;fill-rule:nonzero;stroke:none"
             id="path96" /></g></g><g
         id="g98"><g
           id="g100"
           clip-path="url(#clipPath104)"><path
             d="m 419,343 h 100 v 80 H 419 Z"
             style="fill:#ffffff;fill-opacity:1;fill-rule:nonzero;stroke:none"
             id="path106" /></g></g><path
         d="m 532,348 h 12 v 69.999 h -12 z"
         style="fill:#ffffff;fill-opacity:1;fill-rule:nonzero;stroke:none"
         id="path108" /></g></g></svg>